<?xml version="1.0" standalone="no"?>
<!DOCTYPE svg PUBLIC "-//W3C//DTD SVG 20010904//EN"
 "http://www.w3.org/TR/2001/REC-SVG-20010904/DTD/svg10.dtd">
<svg version="1.0" xmlns="http://www.w3.org/2000/svg"
 width="512.000000pt" height="512.000000pt" viewBox="0 0 512.000000 512.000000"
 preserveAspectRatio="xMidYMid meet">

<g transform="translate(0.000000,512.000000) scale(0.100000,-0.100000)"
fill="#000000" stroke="none">
<path d="M1983 5102 c-72 -26 -127 -66 -163 -120 -51 -77 -60 -126 -60 -323
l0 -178 -517 -3 -518 -3 -56 -26 c-71 -33 -125 -87 -158 -158 -26 -55 -26 -58
-26 -291 0 -233 0 -236 26 -291 33 -71 87 -125 158 -158 l56 -26 1835 0 1835
0 56 26 c71 33 125 87 158 158 26 55 26 58 26 291 0 233 0 236 -26 291 -33 71
-87 125 -158 158 l-56 26 -517 3 -517 3 -3 197 c-3 188 -4 199 -29 253 -33 71
-87 125 -158 158 l-56 26 -540 2 c-499 3 -544 1 -592 -15z m983 -328 c60 -44
69 -67 72 -185 l4 -109 -481 0 -481 0 0 94 c0 102 9 137 43 175 46 50 56 51
449 48 353 -2 368 -3 394 -23z"/>
<path d="M800 1888 c0 -1467 -3 -1384 72 -1537 82 -166 251 -297 434 -336 103
-22 2405 -22 2508 0 183 39 352 170 434 336 75 153 72 70 72 1537 l0 1312
-1760 0 -1760 0 0 -1312z m1048 965 c14 -10 35 -32 46 -47 21 -27 21 -33 21
-1046 0 -1013 0 -1019 -21 -1046 -39 -53 -71 -69 -134 -69 -63 0 -95 16 -134
69 -21 27 -21 35 -24 1019 -1 546 0 1006 3 1024 7 40 49 91 90 109 40 19 120
12 153 -13z m800 0 c14 -10 35 -32 46 -47 21 -27 21 -33 21 -1046 0 -1013 0
-1019 -21 -1046 -39 -53 -71 -69 -134 -69 -63 0 -95 16 -134 69 -21 27 -21 35
-24 1019 -1 546 0 1006 3 1024 7 40 49 91 90 109 40 19 120 12 153 -13z m800
0 c14 -10 35 -32 46 -47 21 -27 21 -33 21 -1046 0 -1013 0 -1019 -21 -1046
-32 -44 -68 -66 -116 -71 -58 -7 -108 15 -144 63 l-29 37 0 1017 0 1017 29 37
c16 21 43 44 60 52 41 19 120 12 154 -13z"/>
</g>
</svg>
